<svg viewBox="0 0 72 72" xmlns="http://www.w3.org/2000/svg"><path d="m19.875 46.59-10.546-17.605 5.41-3.374 11.171 17.962" fill="none" stroke="#000" stroke-linecap="round" stroke-linejoin="round" stroke-width="2"/><path d="m14.206 30.088-.698 5.873 8.621 1.532" fill="none" stroke="#000" stroke-linecap="round" stroke-linejoin="round" stroke-width="2"/><path d="m20.0702 40.6246-.6228 5.2336" fill="none" stroke="#000" stroke-linecap="round" stroke-linejoin="round" stroke-width="2"/><path d="m42.7455 24.9444a2 2 0 1 1 -2-2 2.0007 2.0007 0 0 1 2 2"/><path d="m34.7455 24.9444a2 2 0 1 1 -2-2 2.0007 2.0007 0 0 1 2 2"/><g fill="none" stroke="#000" stroke-linecap="round" stroke-linejoin="round" stroke-width="2"><path d="m17.3926 59.9165v-5.0816c-.0436-3.6349.9603-11.3649 10.2888-11.3649h2.4147a1.1408 1.1408 0 0 0 1.1253-.9534l.2768-1.6607"/><path d="m55.9373 59.9165v-5.0816c.0436-3.6349-.9603-11.3649-10.2888-11.3649h-2.4147a1.1408 1.1408 0 0 1 -1.1253-.9534l-.2768-1.6607"/><ellipse cx="36.6675" cy="25.6198" rx="14.5511" ry="16.2951"/><path d="m23.4484 32.4355s8.1953-2.6606 13.2191-2.6606c5.753 0 13.375 2.2727 13.375 2.2727"/><path d="m22.2285 27.6524s-1.07-8.5555 14.439-8.5555c16.0874 0 14.4364 8.5555 14.4364 8.5555"/><path d="m30.0961 43.47s.7425 8.2231 14.1742 16.4462"/><path d="m20.662 45.7805c.78 3.1761 3.091 9.0738 9.8905 14.136"/><path d="m43.3209 43.47s-.4327 4.7916-6.6119 10.7171"/><path d="m52.7394 45.8433a25.1692 25.1692 0 0 1 -9.2432 13.59"/></g></svg>